# Blender v2.78 (sub 0) OBJ File: ''
# www.blender.org
mtllib cutlery.mtl
o Cube.006_Cube.001
v 0.015248 -0.496830 0.197032
v 0.015248 0.014856 -0.076526
v 0.015248 -0.510894 0.168289
v -0.024752 -0.510894 0.168289
v -0.024752 0.014856 -0.076526
v -0.024752 -0.496830 0.197032
v -0.024752 0.028920 -0.047782
v 0.075248 0.014856 -0.076526
v -0.084752 0.014856 -0.076526
v -0.084752 0.028920 -0.047782
v -0.084752 0.163027 -0.149023
v -0.084752 0.177091 -0.120279
v 0.015248 0.028920 -0.047782
v 0.075248 0.028920 -0.047782
v 0.075248 0.163027 -0.149023
v 0.075248 0.177091 -0.120279
v -0.122117 -0.346065 -0.119122
v 0.019982 0.074735 0.026557
v -0.106170 -0.349115 -0.127713
v 0.026587 0.078280 0.009787
v -0.099565 -0.345570 -0.144482
v -0.106170 -0.337507 -0.159607
v 0.019982 0.086344 -0.005338
v -0.122117 -0.329648 -0.164227
v 0.004034 0.094202 -0.009958
v -0.138065 -0.326598 -0.155636
v -0.011913 0.097252 -0.001367
v -0.144670 -0.330143 -0.138867
v -0.010765 0.167480 0.001024
v -0.011913 0.085644 0.030527
v -0.138065 -0.338207 -0.123742
v 0.004034 0.077785 0.035147
v 0.077128 0.124168 0.026489
v 0.081762 0.166972 0.083298
v 0.096842 0.175066 0.045014
v 0.025641 0.123038 0.084385
v 0.062048 0.116075 0.064773
v 0.062048 0.142577 -0.008040
v -0.025845 0.159387 0.039307
v -0.018518 0.093707 0.015402
v 0.025641 0.160517 -0.018588
v -0.010765 0.140978 0.073837
v 0.008949 0.191876 0.092362
v 0.061343 0.222710 0.097339
v 0.045355 0.173935 0.102910
v -0.006131 0.210284 0.057833
v 0.045355 0.211415 -0.000063
v 0.008949 0.218378 0.019549
v 0.081762 0.193474 0.010485
v 0.030452 0.244519 0.070293
v 0.061343 0.245197 0.035556
v 0.092235 0.223388 0.062602
v 0.083187 0.234433 0.041884
v 0.083187 0.218532 0.085572
v 0.039500 0.233474 0.091010
v 0.039500 0.249375 0.047323
v 0.036014 -0.403587 -0.151791
v -0.029798 0.021957 0.227905
v 0.158140 0.021957 0.159501
v -0.167645 -0.365019 -0.126578
v -0.045518 0.060524 0.184714
v 0.020294 -0.365019 -0.194982
v 0.142420 0.060524 0.116310
v -0.151925 -0.403587 -0.083387
vn -1.0000 -0.0000 0.0000
vn 0.0000 0.4221 0.9065
vn 1.0000 0.0000 0.0000
vn 0.0000 -0.4221 -0.9065
vn 0.0000 0.8982 -0.4395
vn -0.0000 0.0000 -1.0000
vn 0.5294 -0.8376 0.1345
vn 0.0000 0.0000 1.0000
vn 0.5773 0.2648 -0.7723
vn 0.0000 -0.8982 0.4395
vn 0.0000 -0.4395 -0.8982
vn 0.0000 0.4395 0.8982
vn -0.3695 0.4130 -0.8324
vn -0.3694 0.4129 -0.8325
vn -0.8901 0.3645 -0.2735
vn -0.8901 0.1034 0.4438
vn -0.3694 -0.2188 0.9031
vn -0.3695 -0.2188 0.9031
vn 0.3695 -0.4130 0.8324
vn 0.3695 -0.4129 0.8325
vn 0.8901 -0.3645 0.2735
vn 0.4683 -0.0377 0.8827
vn 0.8901 -0.1034 -0.4438
vn 0.3694 0.2188 -0.9031
vn 0.3695 0.2188 -0.9031
vn 0.3420 0.8830 0.3214
vn -0.8682 0.4278 -0.2515
vn 0.4683 0.5385 -0.7005
vn -0.1874 0.7628 -0.6188
vn -0.1875 0.7628 -0.6188
vn -0.6512 0.5140 0.5584
vn 0.9320 -0.0275 0.3613
vn -0.1875 0.1866 0.9644
vn -0.1874 0.1866 0.9644
vn 0.9320 0.2111 -0.2945
vn -0.6512 0.7526 -0.0974
vn -0.6512 0.7527 -0.0974
vn 0.1940 -0.1739 -0.9655
vn 0.8682 -0.1660 -0.4677
vn 0.3596 -0.4390 0.8234
vn -0.8682 0.1660 0.4677
vn -0.3596 0.4390 -0.8234
vn 0.3596 0.1930 -0.9129
vn 0.8682 -0.4278 0.2515
vn -0.3596 -0.1930 0.9129
vn -0.3420 -0.8830 -0.3214
vn 0.6607 -0.7435 0.1031
vn -0.4659 -0.5281 0.7100
vn -0.9326 0.0416 -0.3586
vn 0.6607 -0.5033 -0.5569
vn 0.1940 -0.7538 0.6278
vn -0.9326 -0.1986 0.3014
vn -0.4659 0.0518 -0.8833
vn -0.2690 0.6177 -0.7390
vn 0.9362 -0.0117 -0.3512
vn 0.2690 -0.6177 0.7390
vn -0.9362 0.0117 0.3512
vn -0.2198 -0.7660 -0.6040
vn 0.2198 0.7660 0.6040
vn 0.4683 -0.0377 0.8828
vn 0.3420 0.8830 0.3215
vn 0.3421 0.8830 0.3213
usemtl Wood.006
s 1
f 1//1 2//1 3//1
f 2//2 4//2 3//2
f 5//3 6//3 4//3
f 7//4 1//4 6//4
f 4//5 1//5 3//5
f 5//6 8//7 9//6
f 10//3 11//3 12//3
f 5//5 10//5 7//5
f 13//5 8//5 2//5
f 13//8 10//9 14//8
f 15//10 12//10 11//10
f 14//1 15//1 8//1
f 10//11 16//11 14//11
f 8//12 11//12 9//12
f 17//13 18//14 19//13
f 19//15 20//15 21//15
f 20//16 22//16 21//16
f 23//17 24//18 22//18
f 25//19 26//20 24//20
f 27//21 28//21 26//21
f 25//22 29//22 27//22
f 28//23 30//23 31//23
f 31//24 32//25 17//24
f 24//26 26//26 19//26
f 33//27 34//27 35//27
f 30//28 36//28 32//28
f 18//29 36//30 37//30
f 23//31 33//31 38//31
f 27//32 39//32 40//32
f 23//33 41//33 25//34
f 30//35 39//35 42//35
f 18//36 33//36 20//37
f 43//38 44//38 45//38
f 42//39 46//39 43//39
f 29//40 47//40 48//40
f 38//41 35//41 49//41
f 37//42 45//42 34//42
f 42//43 45//43 36//43
f 29//44 46//44 39//44
f 38//45 47//45 41//45
f 50//46 51//46 52//46
f 48//47 50//47 46//47
f 47//48 53//48 51//48
f 35//49 54//49 52//49
f 46//50 55//50 43//50
f 48//51 51//51 56//51
f 35//52 53//52 49//52
f 45//53 54//53 34//53
f 57//54 58//54 59//54
f 58//55 60//55 61//55
f 61//56 62//56 63//56
f 62//57 59//57 63//57
f 61//58 59//58 58//58
f 60//59 57//59 62//59
f 1//1 13//1 2//1
f 2//2 5//2 4//2
f 5//3 7//3 6//3
f 7//4 13//4 1//4
f 4//5 6//5 1//5
f 5//6 2//8 8//7
f 10//3 9//3 11//3
f 5//5 9//5 10//5
f 13//5 14//5 8//5
f 13//8 7//6 10//9
f 15//10 16//10 12//10
f 14//1 16//1 15//1
f 10//11 12//11 16//11
f 8//12 15//12 11//12
f 17//13 32//14 18//14
f 19//15 18//15 20//15
f 20//16 23//16 22//16
f 23//17 25//17 24//18
f 25//19 27//19 26//20
f 27//21 40//21 28//21
f 25//22 41//60 29//22
f 28//23 40//23 30//23
f 31//24 30//25 32//25
f 31//61 17//26 28//26
f 19//26 21//26 24//26
f 22//62 24//26 21//26
f 26//26 28//26 17//26
f 17//26 19//26 26//26
f 33//27 37//27 34//27
f 30//28 42//28 36//28
f 18//29 32//29 36//30
f 23//31 20//31 33//31
f 27//32 29//32 39//32
f 23//33 38//33 41//33
f 30//35 40//35 39//35
f 18//36 37//36 33//36
f 43//38 55//38 44//38
f 42//39 39//39 46//39
f 29//40 41//40 47//40
f 38//41 33//41 35//41
f 37//42 36//42 45//42
f 42//43 43//43 45//43
f 29//44 48//44 46//44
f 38//45 49//45 47//45
f 52//46 54//46 44//46
f 44//46 55//46 52//46
f 50//46 56//46 51//46
f 51//46 53//46 52//46
f 52//46 55//46 50//46
f 48//47 56//47 50//47
f 47//48 49//48 53//48
f 35//49 34//49 54//49
f 46//50 50//50 55//50
f 48//51 47//51 51//51
f 35//52 52//52 53//52
f 45//53 44//53 54//53
f 57//54 64//54 58//54
f 58//55 64//55 60//55
f 61//56 60//56 62//56
f 62//57 57//57 59//57
f 61//58 63//58 59//58
f 60//59 64//59 57//59
