# Blender v2.78 (sub 0) OBJ File: 'kitchen.blend'
# www.blender.org
mtllib flame.mtl
o Cube.008_Cube.003
v -0.006673 0.021821 -0.148831
v 0.013281 0.001456 -0.173269
v -0.006673 -0.018908 -0.132539
v -0.026626 0.001456 -0.173269
v -0.006673 0.061686 -0.184405
v -0.006673 0.021821 0.174591
v -0.026626 0.001456 0.199029
v -0.006673 -0.018908 0.158299
v 0.013281 0.001456 0.199029
v -0.006673 0.061686 0.210165
v -0.175777 0.021821 0.005302
v -0.200214 0.001456 -0.014651
v -0.159485 -0.018908 0.005302
v -0.200214 0.001456 0.025255
v -0.211351 0.061686 0.005302
v 0.141089 0.021821 0.005302
v 0.165526 0.001456 0.025255
v 0.124797 -0.018908 0.005302
v 0.165526 0.001456 -0.014651
v 0.176663 0.061686 0.005302
v 0.103432 0.021821 -0.098804
v 0.134821 0.001456 -0.101975
v 0.091912 -0.018908 -0.087284
v 0.106603 0.001456 -0.130193
v 0.128587 0.061686 -0.123958
v -0.125262 0.021821 0.129890
v -0.156651 0.001456 0.133061
v -0.113742 -0.018908 0.118370
v -0.128433 0.001456 0.161279
v -0.150416 0.061686 0.155045
v -0.125131 0.021821 -0.109390
v -0.128302 0.001456 -0.140779
v -0.113611 -0.018908 -0.097870
v -0.156520 0.001456 -0.112561
v -0.150285 0.061686 -0.134545
v 0.098927 0.021821 0.114668
v 0.102098 0.001456 0.146057
v 0.087407 -0.018908 0.103148
v 0.130316 0.001456 0.117839
v 0.124081 0.061686 0.139822
vn 0.8348 0.2045 0.5112
vn 0.0000 -0.8944 -0.4472
vn -0.8348 0.2045 0.5112
vn -0.8348 0.2045 -0.5112
vn 0.0000 -0.8944 0.4472
vn 0.8348 0.2045 -0.5112
vn 0.5112 0.2045 -0.8348
vn -0.4472 -0.8944 0.0000
vn 0.5112 0.2045 0.8348
vn -0.5112 0.2045 0.8348
vn 0.4472 -0.8944 0.0000
vn -0.5112 0.2045 -0.8348
vn 0.2288 0.2045 0.9518
vn 0.3162 -0.8944 -0.3162
vn -0.9518 0.2045 -0.2288
vn -0.2288 0.2045 -0.9518
vn -0.3162 -0.8944 0.3162
vn 0.9518 0.2045 0.2288
vn 0.9518 0.2045 -0.2288
vn -0.3162 -0.8944 -0.3162
vn -0.2288 0.2045 0.9518
vn -0.9518 0.2045 0.2288
vn 0.3162 -0.8944 0.3162
vn 0.2288 0.2045 -0.9518
vn -0.8470 0.3539 0.3966
vn 0.0000 -0.1818 -0.9833
vn 0.8470 0.3539 0.3966
vn 0.8470 0.3539 -0.3966
vn 0.0000 -0.1818 0.9833
vn -0.8470 0.3539 -0.3966
vn 0.3966 0.3539 0.8470
vn -0.9833 -0.1818 0.0000
vn 0.3966 0.3539 -0.8470
vn -0.3966 0.3539 -0.8470
vn 0.9833 -0.1818 0.0000
vn -0.3966 0.3539 0.8470
vn -0.8794 0.3539 -0.3185
vn 0.6953 -0.1818 -0.6953
vn 0.3185 0.3539 0.8794
vn 0.8794 0.3539 0.3185
vn -0.6953 -0.1818 0.6953
vn -0.3185 0.3539 -0.8794
vn -0.3185 0.3539 0.8794
vn -0.6953 -0.1818 -0.6953
vn 0.8794 0.3539 -0.3185
vn 0.3185 0.3539 -0.8794
vn 0.6953 -0.1818 0.6953
vn -0.8794 0.3539 0.3185
usemtl Fire
s off
f 1//1 3//1 2//1
f 2//2 3//2 4//2
f 4//3 3//3 1//3
f 6//4 8//4 7//4
f 7//5 8//5 9//5
f 9//6 8//6 6//6
f 11//7 13//7 12//7
f 12//8 13//8 14//8
f 14//9 13//9 11//9
f 16//10 18//10 17//10
f 17//11 18//11 19//11
f 19//12 18//12 16//12
f 21//13 23//13 22//13
f 22//14 23//14 24//14
f 24//15 23//15 21//15
f 26//16 28//16 27//16
f 27//17 28//17 29//17
f 29//18 28//18 26//18
f 31//19 33//19 32//19
f 32//20 33//20 34//20
f 34//21 33//21 31//21
f 36//22 38//22 37//22
f 37//23 38//23 39//23
f 39//24 38//24 36//24
usemtl Fire2
f 4//25 1//25 5//25
f 2//26 4//26 5//26
f 1//27 2//27 5//27
f 9//28 6//28 10//28
f 7//29 9//29 10//29
f 6//30 7//30 10//30
f 14//31 11//31 15//31
f 12//32 14//32 15//32
f 11//33 12//33 15//33
f 19//34 16//34 20//34
f 17//35 19//35 20//35
f 16//36 17//36 20//36
f 24//37 21//37 25//37
f 22//38 24//38 25//38
f 21//39 22//39 25//39
f 29//40 26//40 30//40
f 27//41 29//41 30//41
f 26//42 27//42 30//42
f 34//43 31//43 35//43
f 32//44 34//44 35//44
f 31//45 32//45 35//45
f 39//46 36//46 40//46
f 37//47 39//47 40//47
f 36//48 37//48 40//48
